<svg xmlns="http://www.w3.org/2000/svg" height="136" width="122">
  <g>
    <path d="M72.5 51l5.813-5.338 6.25 11.313 3.663-1.988-5.975-10.875 8.512.039-16.75-15.625m-33.125-27.25c-8.2 0-9.012.806-9.012 8.887v21.25c0 8.05-.005 8.988 5.588 8.988 0 0 .128-25.5.128-33.375h41.875c-.313-3.875-.395-5.813-8.238-5.813h-30.375zm6.638 6.975c-8.2 0-9.012.84-9.012 8.925v21.25c0 8.05.904 9.025 9.012 9.025h24.5l.38-5.588h-28.25v-28h37.125v20.25l5.563 5.213.035-.943v-21.25c0-7.775-1.055-8.925-8.887-8.925h-30.375zm5.338 10.675c-1.775 0-3.237 1.462-3.237 3.237s1.462 3.138 3.237 3.138 3.138-1.363 3.138-3.138-1.363-3.237-3.138-3.237zm21.375 3.237c-2.275 0-5.25 4.463-7.1 7.162-.981 1.438-2.325 4.375-3.837 4.112-1.7-.284-4.412-5.625-6.662-5.588-3.45.034-7.95 4.1-9.425 10.738h25.375l.815-11.75 4.65 4.362v-4.688c0-1.625-2.05-4.362-3.837-4.362" fill="#a1a1a1"/>
    <path d="M.781 94.625v1.825h39.375v-1.825h-39.375zm81.5.059v1.825h39.375v-1.825" fill="#a1a1a1"/>
    <text font-size="11.2" font-family="'Hiragino Sans GB','Microsoft YaHei','WenQuanYi Micro Hei',tahoma,sans-serif" transform="matrix(1.25 0 0 1.25 54.004 100.579)" fill="#a1a1a1">
      <tspan y="-23.863" x="-33.381271 -22.181271 -10.98127 0.21873 11.41873 22.618731 33.818729">将图像拖至此处</tspan>
      <tspan y="0" x="0">或</tspan>
      <tspan y="25.872" x="-27.846901 -16.6469 -5.4468999 5.7530999 16.9531 28.153099">点击选择图像</tspan>
    </text>
  </g>
</svg>
